<svg xmlns="http://www.w3.org/2000/svg" viewBox="0 0 40.6 40.62"><defs><style>.cls-1{opacity:0.9;}.cls-2{fill:#fff;}</style></defs><title>lang</title><g id="Layer_2" data-name="Layer 2"><g id="Layer_3" data-name="Layer 3" class="cls-1"><path class="cls-2" d="M39.86,21.08a.75.75,0,0,1-.26,0H20.48a1.09,1.09,0,0,1-.36,0H.92A.77.77,0,0,1,0,20.32v0H0A20.32,20.32,0,0,1,6.09,5.82a.81.81,0,0,1,.21-.2A20.27,20.27,0,0,1,20.28,0h0a20.23,20.23,0,0,1,14,5.61.72.72,0,0,1,.25.24,20.33,20.33,0,0,1,6.07,14.5.73.73,0,0,1-.74.73m-8.35-1.51h7.6A18.88,18.88,0,0,0,34,7.42a11.71,11.71,0,0,1-4.12,3.26,26.43,26.43,0,0,1,1.62,8.89M21,19.57h9a25.29,25.29,0,0,0-1.49-8.3A22.25,22.25,0,0,1,21,12.64Zm-10.47,0h9V12.64a22.24,22.24,0,0,1-7.51-1.37,25.52,25.52,0,0,0-1.49,8.3m-9.07,0h7.6a26.38,26.38,0,0,1,1.62-8.89A11.63,11.63,0,0,1,6.59,7.42a18.74,18.74,0,0,0-5.1,12.15M12.61,9.92a20.71,20.71,0,0,0,7,1.24V1.94a16.46,16.46,0,0,0-4,3.36,18.44,18.44,0,0,0-3,4.62m8.42-8v9.22a20.69,20.69,0,0,0,7-1.25,17.68,17.68,0,0,0-6.95-8M7.64,6.38a9.9,9.9,0,0,0,3.63,2.94,19.75,19.75,0,0,1,3.24-5.06,18.71,18.71,0,0,1,2.74-2.54A18.8,18.8,0,0,0,7.64,6.38M23.3,1.71a19.86,19.86,0,0,1,6,7.6A10.19,10.19,0,0,0,33,6.38,18.79,18.79,0,0,0,23.3,1.71"/><path class="cls-2" d="M20.3,40.62h0A20.22,20.22,0,0,1,6.28,35a1,1,0,0,1-.18-.17A20.27,20.27,0,0,1,0,20.32a.74.74,0,1,1,1.47,0A18.77,18.77,0,0,0,6.59,33.21a11.52,11.52,0,0,1,4.12-3.27,27,27,0,0,1-1.63-9.62.74.74,0,1,1,1.47,0,25.8,25.8,0,0,0,1.5,9A22,22,0,0,1,19.57,28V20.3a.74.74,0,1,1,1.47,0V28a22,22,0,0,1,7.51,1.36,25.8,25.8,0,0,0,1.5-9,.74.74,0,1,1,1.47,0,27.26,27.26,0,0,1-1.62,9.62A11.66,11.66,0,0,1,34,33.21a18.77,18.77,0,0,0,5.12-12.89.74.74,0,1,1,1.47,0,20.27,20.27,0,0,1-6.1,14.5,1,1,0,0,1-.18.17,20.22,20.22,0,0,1-14,5.63ZM7.65,34.25a18.7,18.7,0,0,0,9.65,4.66,19.78,19.78,0,0,1-6-7.6,10,10,0,0,0-3.63,2.94M29.33,31.3a20,20,0,0,1-3.23,5.06,18.68,18.68,0,0,1-2.75,2.54A18.79,18.79,0,0,0,33,34.25a9.79,9.79,0,0,0-3.63-2.95m-16.72-.58a18.86,18.86,0,0,0,2.94,4.6,16.42,16.42,0,0,0,4,3.36V29.46a20.48,20.48,0,0,0-7,1.26M21,29.46v9.22a16.65,16.65,0,0,0,4-3.36A18.64,18.64,0,0,0,28,30.71,20.44,20.44,0,0,0,21,29.46"/></g></g></svg>