<svg xmlns="http://www.w3.org/2000/svg" xmlns:xlink="http://www.w3.org/1999/xlink" viewBox="0 0 173.59 129.38"><defs><style>.cls-1{fill:none;}.cls-2{isolation:isolate;}.cls-3{fill:#007297;}.cls-4{mix-blend-mode:multiply;}.cls-5{clip-path:url(#clip-path);}.cls-6{clip-path:url(#clip-path-2);}.cls-7{fill:url(#linear-gradient);}.cls-8{clip-path:url(#clip-path-3);}.cls-9{clip-path:url(#clip-path-4);}.cls-10{fill:url(#linear-gradient-2);}.cls-11{clip-path:url(#clip-path-5);}.cls-12{clip-path:url(#clip-path-6);}.cls-13{fill:url(#linear-gradient-3);}.cls-14{fill:#76777b;}</style><clipPath id="clip-path"><rect class="cls-1" x="69.51" y="31.77" width="69.26" height="48.82"/></clipPath><clipPath id="clip-path-2"><path class="cls-1" d="M138.78,39.22c-8.95-8.62-20.23-9.88-27.79-3.12L69.51,73.15C78.46,81.77,89.74,83,97.3,76.28Z"/></clipPath><linearGradient id="linear-gradient" x1="-801.33" y1="1383.31" x2="-800.33" y2="1383.31" gradientTransform="matrix(-17.3, -25.25, -21.67, 12.93, 16234.55, -38038.15)" gradientUnits="userSpaceOnUse"><stop offset="0" stop-color="#231f20"/><stop offset="1" stop-color="#fff"/></linearGradient><clipPath id="clip-path-3"><rect class="cls-1" x="50.67" y="31.77" width="52.82" height="34.13"/></clipPath><clipPath id="clip-path-4"><path class="cls-1" d="M103.49,39.22C94.55,30.6,83.26,29.34,75.7,36.1l-25,22.36c8.94,8.62,20.22,9.89,27.79,3.13Z"/></clipPath><linearGradient id="linear-gradient-2" x1="-798.6" y1="1380.26" x2="-797.6" y2="1380.26" gradientTransform="matrix(-15.86, -23.15, -19.86, 11.85, 14845.72, -34771.68)" xlink:href="#linear-gradient"/><clipPath id="clip-path-5"><rect class="cls-1" x="32.29" y="31.77" width="36.38" height="19.44"/></clipPath><clipPath id="clip-path-6"><path class="cls-1" d="M68.67,39.22h0c-8.94-8.62-20.23-9.88-27.79-3.12l-8.59,7.67c8.94,8.62,20.22,9.89,27.79,3.13Z"/></clipPath><linearGradient id="linear-gradient-3" x1="-794.71" y1="1375.9" x2="-793.71" y2="1375.9" gradientTransform="matrix(-14.17, -20.69, -17.76, 10.59, 13229.4, -30958.75)" xlink:href="#linear-gradient"/></defs><title>logo</title><g class="cls-2"><g id="Layer_2" data-name="Layer 2"><g id="Layer_1-2" data-name="Layer 1"><path class="cls-3" d="M138.78,39.22c-8.95-8.61-20.23-9.88-27.79-3.12L69.51,73.15C78.46,81.77,89.74,83,97.3,76.28Z"/><g class="cls-4"><g class="cls-5"><g class="cls-6"><polygon class="cls-7" points="89.61 112.38 43.4 44.92 118.68 0 164.89 67.46 89.61 112.38"/></g></g></g><path class="cls-3" d="M103.49,39.22c-8.94-8.61-20.23-9.88-27.79-3.12l-25,22.36c8.94,8.62,20.22,9.89,27.79,3.13Z"/><g class="cls-4"><g class="cls-8"><g class="cls-9"><polygon class="cls-10" points="66 90.72 31.7 40.66 88.16 6.96 122.46 57.03 66 90.72"/></g></g></g><path class="cls-3" d="M68.67,39.22h0c-8.94-8.61-20.23-9.88-27.79-3.12l-8.59,7.67c8.94,8.62,20.22,9.89,27.79,3.13Z"/><g class="cls-4"><g class="cls-11"><g class="cls-12"><polygon class="cls-13" points="42.84 69.06 20.46 36.39 58.11 13.93 80.49 46.6 42.84 69.06"/></g></g></g><path class="cls-14" d="M.05,106.17a9.88,9.88,0,0,1,1.13-.42,2.06,2.06,0,0,1-.65-1.41,2.29,2.29,0,0,1,2.24-2.14,3,3,0,0,1,1.36.34,5.15,5.15,0,0,1-.3,1.23,3.07,3.07,0,0,0-.85-.14,1.61,1.61,0,0,0-1.37.7,1.93,1.93,0,0,0,1,1.07,11.82,11.82,0,0,1,1.84-.15,8.53,8.53,0,0,1-.16,1.58,13.76,13.76,0,0,0-3.86.49,2.56,2.56,0,0,1-.35-1.15"/><path class="cls-14" d="M14,107c0,1.4-2.12,3-4.8,3-2.17,0-3.48-1.16-3.48-3.18A6.66,6.66,0,0,1,6,104.83a3.7,3.7,0,0,1,1.18.2A4.85,4.85,0,0,0,7,106.49c0,1.44,1.09,2.11,2.52,2.11A5.25,5.25,0,0,0,13,107.36c-.88-.46-3.16-1.16-3.16-2.21,0-1.43,2-3.08,4.27-3.37a5.13,5.13,0,0,1-.21,1.53,5.45,5.45,0,0,0-2.84,1.5c1,.59,3,1.08,3,2.21m-3.58,3.83c.44.52.93,1.18.93,1.18l-1.18.93L9.39,112,8.22,113l-.94-1.17a5.6,5.6,0,0,1,1.19-.94c.27.31.56.68.74.93a5.74,5.74,0,0,1,1.18-.93"/><path class="cls-14" d="M19.92,105.33v1.43a.07.07,0,0,1-.08.07,1.92,1.92,0,0,1-1.41-.53,6.76,6.76,0,0,1-3.24,3.77A3.39,3.39,0,0,1,14,108.86a6.81,6.81,0,0,0,3.37-3,9.37,9.37,0,0,0-1.28-3.15,3.51,3.51,0,0,1,1.48-.74,10.17,10.17,0,0,1,.86,3,2.36,2.36,0,0,0,1.38.36c.06,0,.08,0,.08.08"/><path class="cls-14" d="M27.25,105.33v1.43a.07.07,0,0,1-.07.07,1.82,1.82,0,0,1-1.49-.62,5,5,0,0,1-.56.62H19.84a.07.07,0,0,1-.07-.07v-1.43s0-.08.07-.08h4.67a1.16,1.16,0,0,0,0-.32c0-1.13-1.43-2.21-3.71-2.14a4.14,4.14,0,0,1,.31-1.62c2.74,0,4.71,1.48,4.71,3.52v.22a2.29,2.29,0,0,0,1.33.34c.06,0,.07,0,.07.08m-3.86,3c.45.52.93,1.18.93,1.18l-1.18.93-.94-1.17a5.6,5.6,0,0,1,1.19-.94"/><path class="cls-14" d="M27.09,106.76v-1.43s0-.08.07-.08h1.26c-.11-2.35-.21-4.61-.37-7.08a3,3,0,0,1,1.71-.46l0,9.12H27.16a.07.07,0,0,1-.07-.07"/><path class="cls-14" d="M31.42,98.17a2.9,2.9,0,0,1,1.69-.46v8.69a2.6,2.6,0,0,1-.89.43h-.33c0-1.37-.28-5.63-.47-8.66"/><path class="cls-14" d="M36.75,108.86a6.68,6.68,0,0,0,3.37-3,9.17,9.17,0,0,0-1.28-3.15,3.42,3.42,0,0,1,1.49-.73,10,10,0,0,1,.91,3.65c0,1.5-1.32,3.33-3.32,4.49a3.41,3.41,0,0,1-1.17-1.21"/><path class="cls-14" d="M42.78,98.17a2.86,2.86,0,0,1,1.69-.46v7.54H45.6c.06,0,.09,0,.09.08v1.43a.08.08,0,0,1-.09.07H43.25c-.12-2.61-.28-5.63-.47-8.66"/><path class="cls-14" d="M47.27,106.51a3.43,3.43,0,0,0-.24-.33,1.44,1.44,0,0,1-1,.65h-.37a.07.07,0,0,1-.08-.07v-1.43s0-.08.08-.08a1.67,1.67,0,0,0,.87-.19,3.87,3.87,0,0,1,3.28-3.83,3.81,3.81,0,0,1,1.14.8c0,2,.31,3.22,1.79,3.22.06,0,.08,0,.08.08v1.43a.07.07,0,0,1-.08.07,2.48,2.48,0,0,1-1.62-.56,4.35,4.35,0,0,1-.28.81,14.68,14.68,0,0,1-3.53-.57m2.44-3.89a2.48,2.48,0,0,0-2.07,2.29,8.71,8.71,0,0,0,2.9.58,4.54,4.54,0,0,1-.83-2.87"/><path class="cls-14" d="M57.61,105.33v1.43a.07.07,0,0,1-.08.07,2.82,2.82,0,0,1-2.29-.88,7.72,7.72,0,0,1-.53.88h-2a.07.07,0,0,1-.08-.07v-1.43s0-.08.08-.08h1.44a9.63,9.63,0,0,0,.66-2.65,3.11,3.11,0,0,1,1.54.27,11.87,11.87,0,0,1-.71,2.18,6.18,6.18,0,0,0,1.91.2c.06,0,.08,0,.08.08m-3.36-4-.9-1.1a5.19,5.19,0,0,1,1.13-.92c.25.31.52.65.7.89a4.67,4.67,0,0,1,1.12-.9c.42.51.88,1.13.88,1.13l-1.12.89-.71-.87Zm1-1.87-.68-.84a4.37,4.37,0,0,1,.86-.68c.32.39.66.86.66.86Z"/><path class="cls-14" d="M62.43,105.33v1.43s0,.07-.06.07a2.93,2.93,0,0,1-2.3-.88,7.9,7.9,0,0,1-.52.88h-2a.06.06,0,0,1-.07-.07v-1.43s0-.08.07-.08H59a14.82,14.82,0,0,0,.72-4,3,3,0,0,1,1.54.26,15.32,15.32,0,0,1-.77,3.54,5.81,5.81,0,0,0,1.92.2s.06,0,.06.08M59,100l-1-1.17a6.2,6.2,0,0,1,1.21-1c.25.31.51.65.69.89a7.1,7.1,0,0,1,1.13-.89c.45.55.93,1.2.93,1.2l-1.18.93-.72-.87Z"/><path class="cls-14" d="M68.34,106.25a3,3,0,0,1-.5.58H66.49a2.1,2.1,0,0,1-1.59-.9,6.71,6.71,0,0,1-.53.9h-2a.07.07,0,0,1-.07-.07v-1.43s0-.08.07-.08h1.43a8.57,8.57,0,0,0,.6-2.15,4.12,4.12,0,0,1,1.4.25,14.41,14.41,0,0,1-.51,1.71,3,3,0,0,0,1.25.19h.84a2.2,2.2,0,0,0,.14-.94,6.35,6.35,0,0,0-.3-1.84,3,3,0,0,1,1.44-.52,9,9,0,0,1,.23,2,5.13,5.13,0,0,1-.07,1,5,5,0,0,0,2.11.57,4.72,4.72,0,0,0,.13-1.19,5.74,5.74,0,0,0-.57-2.62,3.14,3.14,0,0,1,1.56-.58,9.7,9.7,0,0,1,.45,3,10,10,0,0,1-.51,3,9.17,9.17,0,0,1-3.63-.82"/><path class="cls-14" d="M73.57,105.67a26.9,26.9,0,0,0,5-.73c-.1-2.09-.23-4.71-.38-7a3,3,0,0,1,1.69-.44v7.76h1.31c.06,0,.07,0,.07.08v1.43a.07.07,0,0,1-.07.07H79.29a3.6,3.6,0,0,1-.56-.65,16.79,16.79,0,0,1-5.1,1.06,5,5,0,0,1-.06-1.57m.93-5.53a2.52,2.52,0,0,1,1.37-.85l1.22,4.59a8,8,0,0,1-.7,1h-.24c-.59-1.73-1.12-3.17-1.65-4.69"/><path class="cls-14" d="M81.07,106.76v-1.43s0-.08.07-.08H82.4c-.11-2.35-.21-4.61-.37-7.08a3,3,0,0,1,1.71-.46l0,9.12H81.14a.07.07,0,0,1-.07-.07"/><path class="cls-14" d="M93.71,105.33v1.43a.07.07,0,0,1-.08.07H91.94a3.68,3.68,0,0,1-.53-.63,5.22,5.22,0,0,1-.68.63c-1.69,0-2.75-.87-2.75-2,0-1.26,1.4-2.45,3-3.1,0-.2,0-.44-.07-.66a3.34,3.34,0,0,1,1.68-.5v4.65h1c.06,0,.08,0,.08.08m-3.85-5.5-1-1.16a6.15,6.15,0,0,1,1.21-1c.25.31.52.65.7.89a5.84,5.84,0,0,1,1.13-.89c.44.55.93,1.2.93,1.2l-1.18.92L91,99Zm1.36,5.39c0-.69-.08-1.62-.12-2.34a3.84,3.84,0,0,0-2,1.56,1.9,1.9,0,0,0,1.71.81,2.13,2.13,0,0,0,.46,0"/><path class="cls-14" d="M96,106.83H92.51a.07.07,0,0,1-.07-.07v-1.43s0-.08.07-.08H95a2.24,2.24,0,0,0,.08-.72,6.58,6.58,0,0,0-.47-2.27,3.13,3.13,0,0,1,1.51-.53,8.78,8.78,0,0,1,.31,2.27,8.67,8.67,0,0,1-.48,2.83m-.56,3.56-.76-.92-1.16.92-.94-1.16a5.6,5.6,0,0,1,1.19-.94c.27.31.56.68.74.93a5.11,5.11,0,0,1,1.18-.93c.44.51.92,1.18.92,1.18Z"/><path class="cls-14" d="M101,106.83a19.22,19.22,0,0,1-3.42-.21,4.54,4.54,0,0,1,0-1.68,12.2,12.2,0,0,0,3.28.31,3.86,3.86,0,0,0,.08-.82,5.59,5.59,0,0,0-.91-2.86,2.69,2.69,0,0,1,1.45-.69,7.57,7.57,0,0,1,.84,3.47,10.42,10.42,0,0,1-.29,2.48Z"/><path class="cls-14" d="M104,108.8a5.86,5.86,0,0,0,3-2h-.55c-1.57,0-2.72-.91-2.72-2.11,0-1.41,1.28-3.28,2.55-3.28,1.44,0,2.37,1.66,2.37,3.45a1.49,1.49,0,0,1,0,.36h.87c.06,0,.08,0,.08.08v1.43a.07.07,0,0,1-.08.07h-1.16a7,7,0,0,1-3.1,3.24,3.27,3.27,0,0,1-1.2-1.27m3.22-3.53a1.27,1.27,0,0,0,.05-.34c0-.66-.5-2-1.27-2-.52,0-1.06.76-1.22,1.54a1.91,1.91,0,0,0,1.71.8Z"/><path class="cls-14" d="M109.38,106.76v-1.42s0-.07.07-.07h.43a4.14,4.14,0,0,0,1.65-.24A6.91,6.91,0,0,1,110,103a6.05,6.05,0,0,1,.34-1.38,5,5,0,0,1,2.58-.71,5.48,5.48,0,0,1,3.09,1,6.74,6.74,0,0,1-1.74,3.17,3.87,3.87,0,0,0,1.56.25h.7c.07,0,.08,0,.08.07v1.42a.08.08,0,0,1-.08.07h-.8a5.38,5.38,0,0,1-2.78-.63,4.83,4.83,0,0,1-2.52.63h-1a.07.07,0,0,1-.07-.07m5.07-4.13a4,4,0,0,0-1.58-.35,4.41,4.41,0,0,0-1.62.32,5.31,5.31,0,0,0,1.78,2,4,4,0,0,0,1.42-1.93"/><path class="cls-14" d="M116.49,106.76v-1.43s0-.08.08-.08H118a9,9,0,0,0,.61-2.15,4.17,4.17,0,0,1,1.4.25,12.74,12.74,0,0,1-.52,1.71,3.08,3.08,0,0,0,1.25.19h.84a2,2,0,0,0,.15-.94,6.06,6.06,0,0,0-.31-1.84,3.09,3.09,0,0,1,1.44-.52,8.43,8.43,0,0,1,.24,2,4.75,4.75,0,0,1-.06.84,6.82,6.82,0,0,0,2.14.52,5.2,5.2,0,0,0,.12-1.2,6,6,0,0,0-.53-2.5,3,3,0,0,1,1.48-.53,9,9,0,0,1,.46,2.78,10.63,10.63,0,0,1-.09,1.21,2.54,2.54,0,0,0,1.19.19c.08,0,.09,0,.09.08v1.43s0,.07-.09.07a1.87,1.87,0,0,1-1.45-.71,4.85,4.85,0,0,1-.67.71,8.49,8.49,0,0,1-3-.71,4.8,4.8,0,0,1-.65.71H120.7a2.09,2.09,0,0,1-1.59-.9,5.79,5.79,0,0,1-.53.9h-2a.07.07,0,0,1-.08-.07"/><path class="cls-14" d="M127.73,106.76v-1.43s0-.08.07-.08h1.25c-.1-2.35-.2-4.61-.36-7.08a3,3,0,0,1,1.71-.46l0,9.12H127.8a.07.07,0,0,1-.07-.07"/><path class="cls-14" d="M132.06,98.17a2.9,2.9,0,0,1,1.69-.46v8.69a2.6,2.6,0,0,1-.89.43h-.33c0-1.37-.28-5.63-.47-8.66"/><path class="cls-14" d="M143.74,105.33v1.43a.07.07,0,0,1-.07.07H142a4.2,4.2,0,0,1-.53-.63,4.65,4.65,0,0,1-.68.63c-1.69,0-2.75-.87-2.75-2,0-1.26,1.4-2.45,3-3.1,0-.2,0-.44-.07-.66a3.34,3.34,0,0,1,1.68-.5v4.65h1c.06,0,.07,0,.07.08m-3.84-5.5-1-1.16a5.81,5.81,0,0,1,1.21-1c.25.31.51.65.69.89a6.18,6.18,0,0,1,1.13-.89c.44.55.93,1.2.93,1.2l-1.18.92L141,99Zm1.35,5.39c0-.69-.07-1.62-.12-2.34a3.87,3.87,0,0,0-2,1.56,1.9,1.9,0,0,0,1.71.81,2.13,2.13,0,0,0,.46,0"/><path class="cls-14" d="M150.59,105.15a6.33,6.33,0,0,1-.25,1.68h-6.69a.07.07,0,0,1-.07-.07v-1.43s0-.08.07-.08h5.58v-.11c0-1.43-1-2.13-3.09-2.13a7.62,7.62,0,0,0-1.33.11,2.32,2.32,0,0,1-.7-1.09,25.82,25.82,0,0,1,4.45-4.63,2.14,2.14,0,0,1,1.47.89,27.07,27.07,0,0,0-4.3,3.44,3.49,3.49,0,0,1,1.07-.13c2.14,0,3.79,1.18,3.79,3.55"/><path class="cls-14" d="M156.48,105.33v1.43a.07.07,0,0,1-.07.07,1.92,1.92,0,0,1-1.42-.53,6.72,6.72,0,0,1-3.24,3.77,3.39,3.39,0,0,1-1.16-1.21,6.81,6.81,0,0,0,3.37-3,9.37,9.37,0,0,0-1.28-3.15,3.49,3.49,0,0,1,1.49-.74,10.48,10.48,0,0,1,.85,3,2.38,2.38,0,0,0,1.39.36c.05,0,.07,0,.07.08"/><path class="cls-14" d="M167.73,105.33v1.43s0,.07-.09.07a1.84,1.84,0,0,1-1.45-.71,4.85,4.85,0,0,1-.67.71,8.49,8.49,0,0,1-3-.71,4.8,4.8,0,0,1-.65.71h-1.36a2.09,2.09,0,0,1-1.59-.9,5.79,5.79,0,0,1-.53.9h-2a.07.07,0,0,1-.08-.07v-1.43s0-.08.08-.08h1.42a9.13,9.13,0,0,0,.61-2.15,4.17,4.17,0,0,1,1.4.25,12.74,12.74,0,0,1-.52,1.71,3,3,0,0,0,1.25.19h.84a2,2,0,0,0,.15-.94,6.06,6.06,0,0,0-.31-1.84,3.09,3.09,0,0,1,1.45-.52,9,9,0,0,1,.23,2,4.75,4.75,0,0,1-.06.84,6.82,6.82,0,0,0,2.14.52,5.2,5.2,0,0,0,.12-1.2,5.83,5.83,0,0,0-.54-2.5,3,3,0,0,1,1.49-.53,9,9,0,0,1,.46,2.78c0,.36,0,.8-.09,1.21a2.54,2.54,0,0,0,1.19.19c.08,0,.09,0,.09.08M161,100.66l-.9-1.11a4.9,4.9,0,0,1,1.14-.91l.69.88a4.94,4.94,0,0,1,1.12-.9c.43.52.88,1.14.88,1.14l-1.12.88-.7-.87Zm1-1.87L161.3,98a3.8,3.8,0,0,1,.85-.68c.32.38.66.85.66.85Z"/><path class="cls-14" d="M167.57,106.76v-1.43s0-.08.07-.08h1.26c-.11-2.35-.21-4.61-.37-7.08a3,3,0,0,1,1.71-.46l0,9.12h-2.58a.07.07,0,0,1-.07-.07"/><path class="cls-14" d="M171.9,98.17a2.9,2.9,0,0,1,1.69-.46v8.69a2.6,2.6,0,0,1-.89.43h-.33c0-1.37-.28-5.63-.47-8.66"/><path class="cls-14" d="M0,125.69a3.16,3.16,0,0,1,.52-1.47,5.13,5.13,0,0,0,2.62.66,3.46,3.46,0,0,0,1.39-.22,1.11,1.11,0,0,0,.22-.73c0-.55-.31-.86-1.31-1.21l-.93-.34C1,121.84.18,121.15.18,119.89c0-1.65,1.26-2.68,3.36-2.68a5.3,5.3,0,0,1,2.65.63,3.37,3.37,0,0,1-.58,1.42,4.52,4.52,0,0,0-2.22-.52,4.1,4.1,0,0,0-1.22.16,1,1,0,0,0-.25.68c0,.53.25.86,1.22,1.2l.92.34c1.6.55,2.44,1.26,2.44,2.5C6.5,125.56,5,126.4,3,126.4a5.44,5.44,0,0,1-3-.71"/><path class="cls-14" d="M7.29,124.37c0-1.31,1.11-1.91,2.91-1.91a6,6,0,0,1,1.15.1v-.2c0-.77-.49-1.08-1.52-1.08a4.36,4.36,0,0,0-1.89.43,2.67,2.67,0,0,1-.55-1.24,6.59,6.59,0,0,1,2.82-.61c1.49,0,2.8.56,2.8,2.42v3.85a5.64,5.64,0,0,1-1.44.09l-.08-.59a3.16,3.16,0,0,1-1.58.79c-1.72,0-2.62-.79-2.62-2m4.09.48,0-1.28c-.27,0-.66,0-1,0a2.88,2.88,0,0,0-1.32.22,1,1,0,0,0-.08.42c0,.65.63.89,1.36.89a2.81,2.81,0,0,0,1.08-.21"/><path class="cls-14" d="M14.12,123.69l-.08-3.4a4.82,4.82,0,0,1,1.77-.26v3.09c0,1.33.43,1.78,1.5,1.78a3,3,0,0,0,1-.19l-.11-4.42A4.71,4.71,0,0,1,20,120v6.1a5.58,5.58,0,0,1-1.44.09l-.07-.59a3.49,3.49,0,0,1-1.61.79c-1.64,0-2.67-.73-2.74-2.73"/><path class="cls-14" d="M20.86,123.25c0-2.15,1.33-3.39,3.61-3.39a2.31,2.31,0,0,1,.77.11l-.08-3.09a3.84,3.84,0,0,1,1.8-.45v9.7a5.58,5.58,0,0,1-1.44.09l-.08-.56a3.22,3.22,0,0,1-1.47.76,3,3,0,0,1-3.11-3.17m4.47,1.45,0-3.2a2.73,2.73,0,0,0-1.09-.19,2.47,2.47,0,0,0-1.24.28,2,2,0,0,0-.39,1.37,1.71,1.71,0,0,0,1.92,1.92,2.24,2.24,0,0,0,.85-.18"/><path class="cls-14" d="M27.73,117.46a7.49,7.49,0,0,1,1.51-1.13c.53.66,1.09,1.51,1.09,1.51l-1.48,1.08Zm.42,2.83a4.79,4.79,0,0,1,1.76-.26v6.1a3.7,3.7,0,0,1-1.64.09c0-2,0-4-.12-5.93"/><path class="cls-14" d="M41.34,117.67l-3.06,8.47a7.67,7.67,0,0,1-2.14,0l-3.06-8.47a4.39,4.39,0,0,1,1.78-.3l2.44,7,2.34-7a4.08,4.08,0,0,1,1.7.3"/><path class="cls-14" d="M46.8,123.4H42.33c.14,1.13,1,1.58,2.05,1.58a5,5,0,0,0,1.94-.4,3.37,3.37,0,0,1,.37,1.32,5.77,5.77,0,0,1-2.54.5c-2.18,0-3.39-1.23-3.39-3.25A3,3,0,0,1,44,119.86c1.7,0,3,1.14,2.78,3.54m-1.65-1c0-.84-.59-1.21-1.4-1.21a2.73,2.73,0,0,0-1,.19,2,2,0,0,0-.37,1Z"/><path class="cls-14" d="M47.66,120.29a4.54,4.54,0,0,1,1.61-.27c0,.21,0,.38,0,.63a3.39,3.39,0,0,1,1.62-.79,2.4,2.4,0,0,1,2.66,2.73v3.54a3.65,3.65,0,0,1-1.63.09l0-3.07c0-1.35-.46-1.78-1.47-1.78a3.06,3.06,0,0,0-1,.2v4.56a3.75,3.75,0,0,1-1.65.09c0-2,0-4-.11-5.93"/><path class="cls-14" d="M55.51,123.93V121.5H54a3,3,0,0,1,0-1.4h1.42l-.06-1.83a3.7,3.7,0,0,1,1.74-.43v2.26h2.27a3.66,3.66,0,0,1,0,1.4H57.14v2c0,.87.28,1.31,1.15,1.31a2.73,2.73,0,0,0,.92-.16,5.08,5.08,0,0,1,.16,1.45,4.66,4.66,0,0,1-1.4.2,2.15,2.15,0,0,1-2.46-2.41"/><path class="cls-14" d="M60.1,123.69l-.08-3.4a4.79,4.79,0,0,1,1.76-.26v3.09c0,1.33.44,1.78,1.51,1.78a3.09,3.09,0,0,0,1-.19l-.11-4.42A4.69,4.69,0,0,1,66,120v6.1a5.58,5.58,0,0,1-1.44.09l-.06-.59a3.47,3.47,0,0,1-1.62.79c-1.63,0-2.66-.73-2.73-2.73"/><path class="cls-14" d="M67.15,120.29a4.54,4.54,0,0,1,1.61-.27c0,.21,0,.45,0,.74a4.13,4.13,0,0,1,.86-.73,2.16,2.16,0,0,1,.8-.14,2.82,2.82,0,0,1,.81.11,5.43,5.43,0,0,1-.09,1.5,5.67,5.67,0,0,0-1.17-.13,2,2,0,0,0-1,.31v4.45a3.72,3.72,0,0,1-1.65.09c0-2,0-4-.11-5.93"/><path class="cls-14" d="M77.38,123.4H72.9A1.8,1.8,0,0,0,75,125a5,5,0,0,0,1.94-.4,3.21,3.21,0,0,1,.38,1.32,5.8,5.8,0,0,1-2.54.5c-2.18,0-3.4-1.23-3.4-3.25a3,3,0,0,1,3.27-3.29c1.7,0,3,1.14,2.78,3.54m-1.65-1c0-.84-.6-1.21-1.41-1.21a2.76,2.76,0,0,0-1,.19,2.18,2.18,0,0,0-.37,1Z"/><path class="cls-14" d="M80.56,121.81c0-2.91,1.65-4.59,4.43-4.59a4.85,4.85,0,0,1,2.59.63,3.26,3.26,0,0,1-.62,1.44,4,4,0,0,0-2.07-.52,4.27,4.27,0,0,0-1.82.36,4.81,4.81,0,0,0-.68,2.68c0,1.84.9,3.06,2.73,3.06a3.63,3.63,0,0,0,2-.55,4.84,4.84,0,0,1,.56,1.35,4.89,4.89,0,0,1-2.78.73c-2.88,0-4.3-1.92-4.3-4.59"/><path class="cls-14" d="M88,124.37c0-1.31,1.11-1.91,2.9-1.91a6,6,0,0,1,1.15.1v-.2c0-.77-.48-1.08-1.52-1.08a4.43,4.43,0,0,0-1.89.43,2.67,2.67,0,0,1-.55-1.24,6.64,6.64,0,0,1,2.83-.61c1.49,0,2.8.56,2.8,2.42v3.85a5.64,5.64,0,0,1-1.44.09l-.08-.59a3.15,3.15,0,0,1-1.59.79c-1.71,0-2.61-.79-2.61-2m4.09.48,0-1.28c-.28,0-.66,0-1,0a2.86,2.86,0,0,0-1.32.22,1,1,0,0,0-.08.42c0,.65.62.89,1.35.89a2.82,2.82,0,0,0,1.09-.21"/><path class="cls-14" d="M94.83,120.29a4.59,4.59,0,0,1,1.62-.27c0,.21,0,.39,0,.63a3.11,3.11,0,0,1,1.52-.79A2.93,2.93,0,0,1,101,123c0,2.14-1.33,3.38-3.59,3.38a3.41,3.41,0,0,1-.87-.1l.09,2.77a4.68,4.68,0,0,1-1.69.31c0-3-.07-6.61-.15-9.09m4.14,4.4a2.19,2.19,0,0,0,.37-1.39,1.71,1.71,0,0,0-1.92-1.92,2.34,2.34,0,0,0-.83.19v3.2a3.55,3.55,0,0,0,1.12.18,2.81,2.81,0,0,0,1.26-.26"/><path class="cls-14" d="M101.43,117.46a7.27,7.27,0,0,1,1.5-1.13c.53.66,1.1,1.51,1.1,1.51l-1.49,1.08Zm.42,2.83a4.79,4.79,0,0,1,1.76-.26v6.1a3.75,3.75,0,0,1-1.65.09c0-2,0-4-.11-5.93"/><path class="cls-14" d="M105.64,123.93V121.5h-1.46a3,3,0,0,1,0-1.4h1.43l-.07-1.83a3.71,3.71,0,0,1,1.75-.43v2.26h2.26a3.3,3.3,0,0,1,0,1.4h-2.26v2c0,.87.27,1.31,1.14,1.31a2.73,2.73,0,0,0,.92-.16,5.48,5.48,0,0,1,.17,1.45,4.79,4.79,0,0,1-1.41.2,2.15,2.15,0,0,1-2.46-2.41"/><path class="cls-14" d="M110.1,124.37c0-1.31,1.12-1.91,2.91-1.91a6,6,0,0,1,1.15.1v-.2c0-.77-.48-1.08-1.52-1.08a4.43,4.43,0,0,0-1.89.43,2.67,2.67,0,0,1-.55-1.24,6.64,6.64,0,0,1,2.83-.61c1.49,0,2.8.56,2.8,2.42v3.85a5.64,5.64,0,0,1-1.44.09l-.08-.59a3.19,3.19,0,0,1-1.59.79c-1.71,0-2.62-.79-2.62-2m4.09.48v-1.28c-.28,0-.67,0-1,0a2.93,2.93,0,0,0-1.33.22,1.26,1.26,0,0,0-.08.42c0,.65.63.89,1.36.89a2.77,2.77,0,0,0,1.08-.21"/><path class="cls-14" d="M116.89,116.88a3.82,3.82,0,0,1,1.81-.45v9.7a3.72,3.72,0,0,1-1.65.09c0-3.13,0-6.23-.16-9.34"/><path class="cls-14" d="M122.21,121.81c0-2.91,1.65-4.59,4.43-4.59a4.81,4.81,0,0,1,2.58.63,3.25,3.25,0,0,1-.61,1.44,4.08,4.08,0,0,0-2.07-.52,4.35,4.35,0,0,0-1.83.36,4.81,4.81,0,0,0-.68,2.68c0,1.84.91,3.06,2.74,3.06a3.59,3.59,0,0,0,2-.55,4.88,4.88,0,0,1,.57,1.35,4.92,4.92,0,0,1-2.78.73c-2.88,0-4.3-1.92-4.3-4.59"/><path class="cls-14" d="M129.51,123.12a3.08,3.08,0,0,1,3.32-3.26,3,3,0,0,1,3.21,3.26,3.08,3.08,0,0,1-3.31,3.28,3,3,0,0,1-3.22-3.28m4.22,1.81a2.7,2.7,0,0,0,.57-1.81c0-1.23-.67-1.89-1.63-1.89a4,4,0,0,0-.85.11,2.62,2.62,0,0,0-.56,1.78c0,1.25.65,1.91,1.63,1.91a3.33,3.33,0,0,0,.84-.1"/><path class="cls-14" d="M136.85,120.29a4.56,4.56,0,0,1,1.62-.27c0,.21,0,.38,0,.63a3.12,3.12,0,0,1,1.54-.79,2.36,2.36,0,0,1,2.08.9,3.59,3.59,0,0,1,1.86-.9c1.45,0,2.55.71,2.55,2.73v3.54a3.59,3.59,0,0,1-1.63.09l0-3.07c0-1.35-.41-1.78-1.34-1.78a2.37,2.37,0,0,0-1.07.28,2.49,2.49,0,0,1,.15.87v3.61a3.64,3.64,0,0,1-1.65.08l0-3.06c0-1.35-.4-1.78-1.35-1.78a2.61,2.61,0,0,0-.91.2v4.56a3.75,3.75,0,0,1-1.65.09c0-2,0-4-.11-5.93"/><path class="cls-14" d="M147.6,120.29a4.54,4.54,0,0,1,1.61-.27c0,.21,0,.39,0,.63a3.06,3.06,0,0,1,1.52-.79A2.92,2.92,0,0,1,153.8,123c0,2.14-1.32,3.38-3.59,3.38a3.46,3.46,0,0,1-.87-.1l.1,2.77a4.69,4.69,0,0,1-1.7.31c0-3-.06-6.61-.14-9.09m4.13,4.4a2.19,2.19,0,0,0,.38-1.39,1.71,1.71,0,0,0-1.93-1.92,2.29,2.29,0,0,0-.82.19v3.2a3.49,3.49,0,0,0,1.11.18,2.81,2.81,0,0,0,1.26-.26"/><path class="cls-14" d="M154.48,124.37c0-1.31,1.12-1.91,2.91-1.91a6,6,0,0,1,1.15.1v-.2c0-.77-.49-1.08-1.52-1.08a4.36,4.36,0,0,0-1.89.43,2.67,2.67,0,0,1-.55-1.24,6.64,6.64,0,0,1,2.83-.61c1.48,0,2.79.56,2.79,2.42v3.85a5.61,5.61,0,0,1-1.44.09l-.08-.59a3.16,3.16,0,0,1-1.58.79c-1.71,0-2.62-.79-2.62-2m4.09.48,0-1.28c-.27,0-.66,0-1,0a2.93,2.93,0,0,0-1.33.22,1,1,0,0,0-.08.42c0,.65.63.89,1.36.89a2.81,2.81,0,0,0,1.08-.21"/><path class="cls-14" d="M161.32,120.29a4.54,4.54,0,0,1,1.61-.27c0,.21,0,.38,0,.63a3.4,3.4,0,0,1,1.61-.79,2.41,2.41,0,0,1,2.67,2.73v3.54a3.65,3.65,0,0,1-1.63.09l0-3.07c0-1.35-.46-1.78-1.47-1.78a3.06,3.06,0,0,0-1,.2v4.56a3.75,3.75,0,0,1-1.65.09c0-2,0-4-.11-5.93"/></g></g></g></svg>