<svg xmlns="http://www.w3.org/2000/svg" viewBox="0 0 140.87 78.92"><defs><style>.cls-1{fill:#fff;}.cls-2{fill:#b0aeb0;}</style></defs><title>White logo</title><g id="Layer_2" data-name="Layer 2"><g id="Layer_1-2" data-name="Layer 1"><path class="cls-1" d="M112.16,6c-7.23-7-16.35-8-22.46-2.53L56.18,33.44c7.23,7,16.35,8,22.46,2.53Z"/><path class="cls-1" d="M83.64,6c-7.23-7-16.35-8-22.46-2.53L41,21.57c7.23,7,16.35,8,22.46,2.53Z"/><path class="cls-1" d="M55.5,6h0C48.27-.95,39.15-2,33,3.49L26.1,9.7c7.22,7,16.34,8,22.46,2.52Z"/><path class="cls-2" d="M0,60.12A8.14,8.14,0,0,1,1,59.79a1.64,1.64,0,0,1-.53-1.14,1.85,1.85,0,0,1,1.81-1.73,2.32,2.32,0,0,1,1.1.28,4.14,4.14,0,0,1-.24,1,2.61,2.61,0,0,0-.69-.1,1.32,1.32,0,0,0-1.11.56,1.54,1.54,0,0,0,.79.87,8.61,8.61,0,0,1,1.48-.12,6.27,6.27,0,0,1-.13,1.27,11.34,11.34,0,0,0-3.12.39A2.06,2.06,0,0,1,0,60.12"/><path class="cls-2" d="M11.29,60.81c0,1.14-1.72,2.47-3.88,2.47-1.75,0-2.81-.94-2.81-2.57A5.61,5.61,0,0,1,4.87,59a2.8,2.8,0,0,1,1,.17,4.28,4.28,0,0,0-.19,1.18c0,1.16.88,1.7,2,1.7a4.3,4.3,0,0,0,2.8-1c-.72-.37-2.56-.94-2.56-1.79,0-1.15,1.59-2.49,3.45-2.72a4.06,4.06,0,0,1-.17,1.23A4.38,4.38,0,0,0,8.9,59c.82.48,2.39.87,2.39,1.78M8.4,63.91c.35.42.75,1,.75,1l-1,.75-.6-.75-.94.75-.77-.94a4.53,4.53,0,0,1,1-.76c.21.25.45.55.59.75a4.72,4.72,0,0,1,1-.75"/><path class="cls-2" d="M16.1,59.45V60.6a.06.06,0,0,1-.06.06,1.51,1.51,0,0,1-1.14-.43,5.49,5.49,0,0,1-2.62,3.05,2.69,2.69,0,0,1-.94-1,5.45,5.45,0,0,0,2.72-2.46,7.6,7.6,0,0,0-1-2.55,2.78,2.78,0,0,1,1.2-.6,8.58,8.58,0,0,1,.69,2.4,1.92,1.92,0,0,0,1.12.3c.05,0,.06,0,.06.06"/><path class="cls-2" d="M22,59.45V60.6a.06.06,0,0,1-.06.06,1.5,1.5,0,0,1-1.21-.5,3.17,3.17,0,0,1-.45.5H16A.05.05,0,0,1,16,60.6V59.45s0-.06.06-.06h3.77a.83.83,0,0,0,0-.27c0-.91-1.16-1.78-3-1.72a3.19,3.19,0,0,1,.25-1.31c2.21,0,3.8,1.19,3.8,2.84v.18a1.91,1.91,0,0,0,1.08.28.05.05,0,0,1,.06.06m-3.12,2.4c.35.42.75.95.75.95l-1,.75-.76-.94a4.53,4.53,0,0,1,1-.76"/><path class="cls-2" d="M21.89,60.6V59.45a.05.05,0,0,1,.06-.06h1c-.09-1.91-.17-3.73-.3-5.73a2.43,2.43,0,0,1,1.38-.37v7.37H22a.06.06,0,0,1-.06-.06"/><path class="cls-2" d="M25.39,53.66a2.33,2.33,0,0,1,1.37-.37v7a2.17,2.17,0,0,1-.72.35h-.26c0-1.11-.23-4.55-.39-7"/><path class="cls-2" d="M29.7,62.3a5.44,5.44,0,0,0,2.73-2.46,7.41,7.41,0,0,0-1-2.55,2.75,2.75,0,0,1,1.21-.59,8.06,8.06,0,0,1,.73,2.95c0,1.21-1.07,2.69-2.69,3.63a2.78,2.78,0,0,1-.94-1"/><path class="cls-2" d="M34.57,53.66a2.33,2.33,0,0,1,1.37-.37v6.1h.92s.07,0,.07.06V60.6a.07.07,0,0,1-.07.06H35c-.09-2.11-.22-4.55-.38-7"/><path class="cls-2" d="M38.2,60.4c-.05-.07-.13-.19-.19-.26a1.21,1.21,0,0,1-.84.52h-.3a.05.05,0,0,1-.06-.06V59.45s0-.06.06-.06a1.34,1.34,0,0,0,.7-.16,3.13,3.13,0,0,1,2.66-3.09,3,3,0,0,1,.91.64c0,1.61.25,2.61,1.46,2.61a.05.05,0,0,1,.06.06V60.6a.06.06,0,0,1-.06.06,2,2,0,0,1-1.32-.45,3.32,3.32,0,0,1-.22.65,11.38,11.38,0,0,1-2.86-.46m2-3.14a2,2,0,0,0-1.68,1.85,7,7,0,0,0,2.34.47,3.68,3.68,0,0,1-.66-2.32"/><path class="cls-2" d="M46.56,59.45V60.6a.05.05,0,0,1-.06.06A2.31,2.31,0,0,1,44.64,60a4.84,4.84,0,0,1-.43.71H42.58a.06.06,0,0,1-.06-.06V59.45a.05.05,0,0,1,.06-.06h1.17a8.08,8.08,0,0,0,.54-2.15,2.4,2.4,0,0,1,1.23.22A8.87,8.87,0,0,1,45,59.22a4.94,4.94,0,0,0,1.55.17s.06,0,.06.06m-2.72-3.22-.72-.89A4,4,0,0,1,44,54.6l.55.71a4.38,4.38,0,0,1,.91-.72c.34.41.71.92.71.92l-.9.71-.57-.7Zm.81-1.51L44.11,54a3.47,3.47,0,0,1,.69-.55c.26.31.53.69.53.69Z"/><path class="cls-2" d="M50.45,59.45V60.6s0,.06-.05.06A2.38,2.38,0,0,1,48.55,60a6.06,6.06,0,0,1-.42.71H46.49a.05.05,0,0,1-.06-.06V59.45s0-.06.06-.06h1.16a12.38,12.38,0,0,0,.59-3.24,2.47,2.47,0,0,1,1.24.21,12.52,12.52,0,0,1-.62,2.86,4.53,4.53,0,0,0,1.54.17s.05,0,.05.06m-2.74-4.34-.77-.94a5,5,0,0,1,1-.77l.56.71a5.43,5.43,0,0,1,.91-.71c.36.44.75,1,.75,1l-1,.75-.58-.7Z"/><path class="cls-2" d="M55.24,60.2a2.88,2.88,0,0,1-.41.46H53.74a1.72,1.72,0,0,1-1.29-.73,3.91,3.91,0,0,1-.43.73H50.39a.06.06,0,0,1-.06-.06V59.45s0-.06.06-.06h1.16A7.32,7.32,0,0,0,52,57.65a3.23,3.23,0,0,1,1.14.2,10.17,10.17,0,0,1-.42,1.38,2.46,2.46,0,0,0,1,.16h.68a1.84,1.84,0,0,0,.12-.77,5.16,5.16,0,0,0-.25-1.48,2.39,2.39,0,0,1,1.16-.42,6.63,6.63,0,0,1,.2,1.61,4.88,4.88,0,0,1-.06.79,4,4,0,0,0,1.7.47,3.9,3.9,0,0,0,.11-1A4.61,4.61,0,0,0,57,56.51,2.51,2.51,0,0,1,58.21,56a7.83,7.83,0,0,1,.37,2.38,8,8,0,0,1-.41,2.43,7.55,7.55,0,0,1-2.93-.65"/><path class="cls-2" d="M59.46,59.72a21.92,21.92,0,0,0,4-.58c-.09-1.69-.19-3.81-.31-5.67a2.37,2.37,0,0,1,1.37-.36l0,6.28h1.06s.06,0,.06.06V60.6a.05.05,0,0,1-.06.06H64.08a3,3,0,0,1-.45-.52,13.76,13.76,0,0,1-4.12.85,4.05,4.05,0,0,1,0-1.27m.75-4.46a2,2,0,0,1,1.11-.7l1,3.72a8.36,8.36,0,0,1-.57.76h-.19c-.48-1.39-.91-2.56-1.34-3.78"/><path class="cls-2" d="M65.52,60.6V59.45s0-.06.06-.06h1c-.08-1.91-.16-3.73-.3-5.73a2.46,2.46,0,0,1,1.39-.37l0,7.37H65.58a.05.05,0,0,1-.06-.06"/><path class="cls-2" d="M75.74,59.45V60.6a.06.06,0,0,1-.06.06H74.31a2.7,2.7,0,0,1-.43-.51,3.9,3.9,0,0,1-.55.51c-1.37,0-2.23-.7-2.23-1.6s1.14-2,2.43-2.5c0-.16,0-.35-.06-.53a2.73,2.73,0,0,1,1.36-.41v3.77h.85a.05.05,0,0,1,.06.06M72.63,55l-.78-.94a5,5,0,0,1,1-.77c.2.25.42.52.56.71a5.19,5.19,0,0,1,.92-.71c.35.44.75,1,.75,1l-1,.74-.58-.7Zm1.09,4.36c0-.56-.06-1.31-.09-1.89A3.07,3.07,0,0,0,72,58.73a1.53,1.53,0,0,0,1.38.66,1.35,1.35,0,0,0,.37,0"/><path class="cls-2" d="M77.54,60.66H74.77a.05.05,0,0,1-.06-.06V59.45s0-.06.06-.06h2a2,2,0,0,0,.06-.59A5.17,5.17,0,0,0,76.46,57a2.51,2.51,0,0,1,1.23-.43,7.52,7.52,0,0,1,.25,1.83,6.74,6.74,0,0,1-.4,2.29m-.45,2.88-.61-.75-.94.75-.76-.94a4.53,4.53,0,0,1,1-.76c.21.25.45.55.59.75a4.56,4.56,0,0,1,1-.75c.36.42.75.95.75.95Z"/><path class="cls-2" d="M81.6,60.66a16.28,16.28,0,0,1-2.76-.17,3.63,3.63,0,0,1,0-1.35,10.08,10.08,0,0,0,2.65.25,3.26,3.26,0,0,0,.06-.67,4.39,4.39,0,0,0-.74-2.31A2.23,2.23,0,0,1,82,55.85a6.11,6.11,0,0,1,.68,2.81,8.7,8.7,0,0,1-.24,2Z"/><path class="cls-2" d="M84,62.25a4.7,4.7,0,0,0,2.42-1.59H86c-1.27,0-2.2-.74-2.2-1.7,0-1.15,1-2.66,2.06-2.66s1.91,1.35,1.91,2.79a1.6,1.6,0,0,1,0,.3h.7c.05,0,.06,0,.06.06V60.6a.05.05,0,0,1-.06.06h-.94A5.63,5.63,0,0,1,85,63.28a2.7,2.7,0,0,1-1-1m2.61-2.85a1.26,1.26,0,0,0,0-.28c0-.53-.41-1.62-1-1.62-.41,0-.85.62-1,1.25a1.54,1.54,0,0,0,1.39.65Z"/><path class="cls-2" d="M88.4,60.6V59.46s0-.06.06-.06h.35a3.44,3.44,0,0,0,1.33-.19,5.76,5.76,0,0,1-1.2-1.67,4.46,4.46,0,0,1,.27-1.12,4.21,4.21,0,0,1,2.08-.57,4.37,4.37,0,0,1,2.5.79,5.41,5.41,0,0,1-1.4,2.56,3.07,3.07,0,0,0,1.26.2h.56c.06,0,.07,0,.07.06V60.6s0,.06-.07.06h-.64a4.32,4.32,0,0,1-2.25-.51,3.89,3.89,0,0,1-2,.51h-.82a.05.05,0,0,1-.06-.06m4.1-3.33A3.15,3.15,0,0,0,91.22,57a3.73,3.73,0,0,0-1.31.26,4.38,4.38,0,0,0,1.44,1.59,3.35,3.35,0,0,0,1.15-1.56"/><path class="cls-2" d="M94.15,60.6V59.45s0-.06.06-.06h1.15a7.31,7.31,0,0,0,.49-1.74,3.13,3.13,0,0,1,1.13.2,11.85,11.85,0,0,1-.41,1.38,2.46,2.46,0,0,0,1,.16h.68a1.84,1.84,0,0,0,.12-.77,5.16,5.16,0,0,0-.25-1.48,2.39,2.39,0,0,1,1.16-.42,7.13,7.13,0,0,1,.19,1.61,5.27,5.27,0,0,1,0,.68,5.24,5.24,0,0,0,1.72.41,4.22,4.22,0,0,0,.1-1,4.91,4.91,0,0,0-.43-2A2.34,2.34,0,0,1,102,56a7.22,7.22,0,0,1,.37,2.25c0,.28,0,.64-.07,1a2.05,2.05,0,0,0,1,.16c.06,0,.07,0,.07.06V60.6s0,.06-.07.06a1.53,1.53,0,0,1-1.18-.57,3.94,3.94,0,0,1-.53.57,6.84,6.84,0,0,1-2.41-.57,3.94,3.94,0,0,1-.52.57h-1.1a1.66,1.66,0,0,1-1.28-.73,5.43,5.43,0,0,1-.43.73H94.21a.05.05,0,0,1-.06-.06"/><path class="cls-2" d="M103.23,60.6V59.45s0-.06.06-.06h1c-.08-1.91-.16-3.73-.29-5.73a2.4,2.4,0,0,1,1.38-.37v7.37h-2.09a.06.06,0,0,1-.06-.06"/><path class="cls-2" d="M106.73,53.66a2.33,2.33,0,0,1,1.37-.37v7a2.17,2.17,0,0,1-.72.35h-.27c0-1.11-.22-4.55-.38-7"/><path class="cls-2" d="M116.17,59.45V60.6a.05.05,0,0,1-.06.06h-1.37a3.13,3.13,0,0,1-.43-.51,3.8,3.8,0,0,1-.54.51c-1.37,0-2.23-.7-2.23-1.6s1.13-2,2.43-2.5c0-.16,0-.35-.06-.53a2.7,2.7,0,0,1,1.36-.41v3.77h.84s.06,0,.06.06M113.06,55l-.77-.94a5,5,0,0,1,1-.77l.56.71a5.43,5.43,0,0,1,.91-.71c.36.44.75,1,.75,1l-.95.74-.58-.7Zm1.1,4.36c0-.56-.06-1.31-.09-1.89a3.07,3.07,0,0,0-1.66,1.26,1.53,1.53,0,0,0,1.38.66,1.42,1.42,0,0,0,.37,0"/><path class="cls-2" d="M121.71,59.3a5.15,5.15,0,0,1-.2,1.36H116.1a.05.05,0,0,1-.06-.06V59.45s0-.06.06-.06h4.51v-.1c0-1.15-.78-1.71-2.5-1.71a6.59,6.59,0,0,0-1.07.08,1.9,1.9,0,0,1-.57-.88A21.38,21.38,0,0,1,120.06,53a1.75,1.75,0,0,1,1.2.71,22.56,22.56,0,0,0-3.48,2.79,2.83,2.83,0,0,1,.87-.11,2.76,2.76,0,0,1,3.06,2.87"/><path class="cls-2" d="M126.47,59.45V60.6a.06.06,0,0,1-.06.06,1.51,1.51,0,0,1-1.14-.43,5.49,5.49,0,0,1-2.62,3.05,2.69,2.69,0,0,1-.94-1,5.45,5.45,0,0,0,2.72-2.46,7.6,7.6,0,0,0-1-2.55,2.78,2.78,0,0,1,1.2-.6,8.58,8.58,0,0,1,.69,2.4,1.92,1.92,0,0,0,1.12.3s.06,0,.06.06"/><path class="cls-2" d="M135.56,59.45V60.6s0,.06-.07.06a1.53,1.53,0,0,1-1.18-.57,3.94,3.94,0,0,1-.53.57,6.84,6.84,0,0,1-2.41-.57,3.94,3.94,0,0,1-.52.57h-1.1a1.66,1.66,0,0,1-1.28-.73,5.43,5.43,0,0,1-.43.73h-1.63a.05.05,0,0,1-.06-.06V59.45s0-.06.06-.06h1.15a7.31,7.31,0,0,0,.49-1.74,3.13,3.13,0,0,1,1.13.2,11.85,11.85,0,0,1-.41,1.38,2.46,2.46,0,0,0,1,.16h.68a1.84,1.84,0,0,0,.12-.77,5.16,5.16,0,0,0-.25-1.48,2.39,2.39,0,0,1,1.16-.42,7.13,7.13,0,0,1,.19,1.61,5.27,5.27,0,0,1,0,.68,5.24,5.24,0,0,0,1.72.41,4.22,4.22,0,0,0,.1-1,4.91,4.91,0,0,0-.43-2,2.34,2.34,0,0,1,1.2-.42,7.22,7.22,0,0,1,.37,2.25c0,.28,0,.64-.07,1a2.05,2.05,0,0,0,1,.16c.06,0,.07,0,.07.06m-5.46-3.78-.73-.89a4.31,4.31,0,0,1,.92-.74c.2.25.42.52.56.72a3.66,3.66,0,0,1,.9-.73c.35.42.72.91.72.91l-.91.72L131,55Zm.81-1.51-.55-.68a3.47,3.47,0,0,1,.69-.55c.26.31.54.69.54.69Z"/><path class="cls-2" d="M135.43,60.6V59.45s0-.06.06-.06h1c-.08-1.91-.16-3.73-.3-5.73a2.46,2.46,0,0,1,1.39-.37v7.37h-2.09a.06.06,0,0,1-.06-.06"/><path class="cls-2" d="M138.93,53.66a2.33,2.33,0,0,1,1.37-.37v7a2.13,2.13,0,0,1-.73.35h-.26c0-1.11-.22-4.55-.38-7"/><path class="cls-2" d="M0,75.9a2.65,2.65,0,0,1,.42-1.19,4.09,4.09,0,0,0,2.11.54,2.88,2.88,0,0,0,1.13-.18.88.88,0,0,0,.18-.59c0-.44-.25-.69-1.06-1L2,73.22c-1.22-.43-1.88-1-1.88-2,0-1.33,1-2.16,2.72-2.16a4.37,4.37,0,0,1,2.14.5,2.55,2.55,0,0,1-.47,1.15,3.78,3.78,0,0,0-1.79-.41,3.3,3.3,0,0,0-1,.13.8.8,0,0,0-.2.55c0,.43.2.69,1,1l.75.28c1.29.44,2,1,2,2,0,1.57-1.18,2.25-2.85,2.25A4.37,4.37,0,0,1,0,75.9"/><path class="cls-2" d="M5.89,74.83c0-1.06.9-1.54,2.35-1.54a5.46,5.46,0,0,1,.93.08v-.16c0-.62-.39-.87-1.23-.87a3.49,3.49,0,0,0-1.53.35,2.12,2.12,0,0,1-.44-1,5.42,5.42,0,0,1,2.29-.49c1.2,0,2.25.46,2.25,2v3.11a4.83,4.83,0,0,1-1.16.07l-.06-.48A2.6,2.6,0,0,1,8,76.49c-1.39,0-2.12-.64-2.12-1.66m3.31.39,0-1c-.22,0-.53,0-.82,0a2.33,2.33,0,0,0-1.07.19.86.86,0,0,0-.07.34c0,.52.51.71,1.1.71a2.19,2.19,0,0,0,.88-.17"/><path class="cls-2" d="M11.42,74.28l-.07-2.74a3.61,3.61,0,0,1,1.42-.21v2.5c0,1.07.36,1.43,1.22,1.43a2.51,2.51,0,0,0,.84-.15l-.1-3.57a3.58,3.58,0,0,1,1.41-.21v4.93a4.8,4.8,0,0,1-1.16.07l-.05-.48a2.84,2.84,0,0,1-1.31.64c-1.32,0-2.15-.59-2.2-2.21"/><path class="cls-2" d="M16.86,73.93c0-1.74,1.07-2.74,2.92-2.74a1.79,1.79,0,0,1,.62.09l-.06-2.5a3.11,3.11,0,0,1,1.45-.36v7.84a4.91,4.91,0,0,1-1.17.07l-.06-.45a2.68,2.68,0,0,1-1.19.61,2.38,2.38,0,0,1-2.51-2.56m3.61,1.18,0-2.59a2.27,2.27,0,0,0-.88-.16,1.92,1.92,0,0,0-1,.23,1.6,1.6,0,0,0-.32,1.11,1.38,1.38,0,0,0,1.56,1.55,1.92,1.92,0,0,0,.68-.14"/><path class="cls-2" d="M22.41,69.25a6.41,6.41,0,0,1,1.22-.91c.43.54.89,1.22.89,1.22l-1.21.87Zm.34,2.29a3.88,3.88,0,0,1,1.43-.21v4.93a3.07,3.07,0,0,1-1.34.07c0-1.62,0-3.2-.09-4.79"/><path class="cls-2" d="M33.41,69.42l-2.47,6.85a6.27,6.27,0,0,1-1.73,0l-2.47-6.85a3.56,3.56,0,0,1,1.43-.24l2,5.68L32,69.18a3.31,3.31,0,0,1,1.37.24"/><path class="cls-2" d="M37.83,74.05H34.21a1.45,1.45,0,0,0,1.66,1.28A3.88,3.88,0,0,0,37.43,75a2.45,2.45,0,0,1,.3,1.07,4.67,4.67,0,0,1-2,.41,2.45,2.45,0,0,1-2.74-2.63,2.42,2.42,0,0,1,2.64-2.66c1.37,0,2.42.93,2.25,2.86m-1.34-.84c0-.68-.48-1-1.13-1a2.11,2.11,0,0,0-.85.16,1.53,1.53,0,0,0-.3.82Z"/><path class="cls-2" d="M38.52,71.54a3.94,3.94,0,0,1,1.3-.22c0,.17,0,.31,0,.51a2.75,2.75,0,0,1,1.31-.64,1.94,1.94,0,0,1,2.15,2.21v2.86a3,3,0,0,1-1.32.07l0-2.48c0-1.09-.37-1.43-1.19-1.43a2.46,2.46,0,0,0-.8.15v3.69a3,3,0,0,1-1.33.07c0-1.62,0-3.2-.09-4.79"/><path class="cls-2" d="M44.87,74.48l0-2H43.68a2.44,2.44,0,0,1,0-1.14h1.15l-.06-1.47a3,3,0,0,1,1.41-.36v1.83H48a2.74,2.74,0,0,1,0,1.14H46.18v1.65c0,.7.23,1,.93,1a2.27,2.27,0,0,0,.75-.13A4.69,4.69,0,0,1,48,76.27a4.12,4.12,0,0,1-1.14.16,1.73,1.73,0,0,1-2-2"/><path class="cls-2" d="M48.58,74.28l-.07-2.74a3.61,3.61,0,0,1,1.42-.21v2.5c0,1.07.36,1.43,1.22,1.43a2.4,2.4,0,0,0,.83-.15l-.09-3.57a3.58,3.58,0,0,1,1.41-.21v4.93a4.8,4.8,0,0,1-1.16.07l0-.48a2.84,2.84,0,0,1-1.31.64c-1.32,0-2.15-.59-2.2-2.21"/><path class="cls-2" d="M54.27,71.54a4,4,0,0,1,1.31-.22c0,.17,0,.36,0,.6a3.45,3.45,0,0,1,.69-.59,1.69,1.69,0,0,1,.66-.12,1.93,1.93,0,0,1,.65.1,4.16,4.16,0,0,1-.08,1.21,4.42,4.42,0,0,0-.94-.1,1.72,1.72,0,0,0-.85.24v3.6a3,3,0,0,1-1.33.07c0-1.62,0-3.2-.09-4.79"/><path class="cls-2" d="M62.54,74.05H58.92a1.45,1.45,0,0,0,1.66,1.28A4,4,0,0,0,62.15,75a2.75,2.75,0,0,1,.3,1.07,4.7,4.7,0,0,1-2.05.41,2.45,2.45,0,0,1-2.75-2.63,2.42,2.42,0,0,1,2.64-2.66c1.37,0,2.42.93,2.25,2.86m-1.33-.84c0-.68-.49-1-1.14-1a2.11,2.11,0,0,0-.85.16,1.62,1.62,0,0,0-.3.82Z"/><path class="cls-2" d="M65.11,72.77c0-2.35,1.33-3.71,3.58-3.71a3.87,3.87,0,0,1,2.09.51,2.68,2.68,0,0,1-.5,1.16,3.27,3.27,0,0,0-1.67-.42,3.56,3.56,0,0,0-1.47.29,3.86,3.86,0,0,0-.55,2.17c0,1.49.73,2.47,2.21,2.47a2.89,2.89,0,0,0,1.58-.45,3.93,3.93,0,0,1,.45,1.1,4,4,0,0,1-2.24.59c-2.33,0-3.48-1.56-3.48-3.71"/><path class="cls-2" d="M71.12,74.83c0-1.06.9-1.54,2.35-1.54a5.55,5.55,0,0,1,.93.08v-.16c0-.62-.39-.87-1.23-.87a3.49,3.49,0,0,0-1.53.35,2.12,2.12,0,0,1-.44-1,5.41,5.41,0,0,1,2.28-.49c1.21,0,2.26.46,2.26,2v3.11a4.83,4.83,0,0,1-1.16.07l-.06-.48a2.6,2.6,0,0,1-1.28.64c-1.39,0-2.12-.64-2.12-1.66m3.3.39v-1c-.22,0-.54,0-.82,0a2.27,2.27,0,0,0-1.07.19.86.86,0,0,0-.07.34c0,.52.51.71,1.1.71a2.14,2.14,0,0,0,.87-.17"/><path class="cls-2" d="M76.64,71.54A4,4,0,0,1,78,71.32c0,.17,0,.31,0,.51a2.48,2.48,0,0,1,1.23-.64,2.37,2.37,0,0,1,2.49,2.56,2.58,2.58,0,0,1-2.9,2.73,3.22,3.22,0,0,1-.71-.08l.08,2.23a3.68,3.68,0,0,1-1.37.25c0-2.4-.05-5.34-.12-7.34M80,75.09a1.74,1.74,0,0,0,.3-1.12,1.39,1.39,0,0,0-1.56-1.55,1.87,1.87,0,0,0-.66.15v2.59a2.79,2.79,0,0,0,.9.14,2.28,2.28,0,0,0,1-.21"/><path class="cls-2" d="M82,69.25a6.41,6.41,0,0,1,1.22-.91c.43.54.89,1.22.89,1.22l-1.2.87Zm.34,2.29a3.88,3.88,0,0,1,1.43-.21v4.93a3.07,3.07,0,0,1-1.34.07c0-1.62,0-3.2-.09-4.79"/><path class="cls-2" d="M85.38,74.48v-2H84.19a2.44,2.44,0,0,1,0-1.14h1.15l0-1.47a3,3,0,0,1,1.41-.36v1.83h1.83a2.74,2.74,0,0,1,0,1.14H86.7v1.65c0,.7.22,1,.93,1a2.21,2.21,0,0,0,.74-.13,4.27,4.27,0,0,1,.13,1.18,4,4,0,0,1-1.13.16,1.74,1.74,0,0,1-2-2"/><path class="cls-2" d="M89,74.83c0-1.06.9-1.54,2.35-1.54a5.55,5.55,0,0,1,.93.08v-.16c0-.62-.4-.87-1.23-.87a3.49,3.49,0,0,0-1.53.35,2.23,2.23,0,0,1-.45-1,5.49,5.49,0,0,1,2.29-.49c1.2,0,2.26.46,2.26,2v3.11a4.86,4.86,0,0,1-1.16.07l-.07-.48a2.52,2.52,0,0,1-1.28.64c-1.38,0-2.11-.64-2.11-1.66m3.3.39v-1c-.22,0-.54,0-.82,0a2.35,2.35,0,0,0-1.08.19,1.09,1.09,0,0,0-.06.34c0,.52.51.71,1.1.71a2.18,2.18,0,0,0,.87-.17"/><path class="cls-2" d="M94.47,68.78a3.13,3.13,0,0,1,1.47-.36v7.84a3.05,3.05,0,0,1-1.34.07c0-2.53,0-5-.13-7.55"/><path class="cls-2" d="M98.77,72.77c0-2.35,1.33-3.71,3.58-3.71a3.9,3.9,0,0,1,2.09.51,2.68,2.68,0,0,1-.5,1.16,3.27,3.27,0,0,0-1.67-.42,3.65,3.65,0,0,0-1.48.29,3.87,3.87,0,0,0-.54,2.17c0,1.49.73,2.47,2.2,2.47a2.84,2.84,0,0,0,1.58-.45,3.69,3.69,0,0,1,.46,1.1,4,4,0,0,1-2.24.59c-2.33,0-3.48-1.56-3.48-3.71"/><path class="cls-2" d="M104.67,73.83a2.49,2.49,0,0,1,2.68-2.64,2.44,2.44,0,0,1,2.6,2.64,2.49,2.49,0,0,1-2.68,2.65,2.44,2.44,0,0,1-2.6-2.65m3.41,1.46a2.12,2.12,0,0,0,.46-1.46c0-1-.53-1.53-1.32-1.53a3.09,3.09,0,0,0-.68.09,2.11,2.11,0,0,0-.45,1.44c0,1,.52,1.54,1.31,1.54a3,3,0,0,0,.68-.08"/><path class="cls-2" d="M110.6,71.54a4,4,0,0,1,1.31-.22c0,.17,0,.31,0,.51a2.51,2.51,0,0,1,1.24-.64,1.9,1.9,0,0,1,1.68.73,2.93,2.93,0,0,1,1.51-.73c1.17,0,2.06.57,2.06,2.21v2.86a2.92,2.92,0,0,1-1.32.07l0-2.48c0-1.09-.32-1.43-1.08-1.43a1.8,1.8,0,0,0-.86.22,2,2,0,0,1,.11.7v2.92a2.88,2.88,0,0,1-1.33.06l0-2.47c0-1.09-.33-1.43-1.1-1.43a2,2,0,0,0-.73.15v3.69a3,3,0,0,1-1.33.07c0-1.62,0-3.2-.1-4.79"/><path class="cls-2" d="M119.29,71.54a4,4,0,0,1,1.31-.22,4.61,4.61,0,0,1,0,.51,2.48,2.48,0,0,1,1.23-.64,2.37,2.37,0,0,1,2.5,2.56,2.59,2.59,0,0,1-2.91,2.73,3.06,3.06,0,0,1-.7-.08l.08,2.23a3.72,3.72,0,0,1-1.37.25c0-2.4-.06-5.34-.12-7.34m3.34,3.55a1.74,1.74,0,0,0,.3-1.12,1.38,1.38,0,0,0-1.55-1.55,1.92,1.92,0,0,0-.67.15v2.59a2.88,2.88,0,0,0,.9.14,2.28,2.28,0,0,0,1-.21"/><path class="cls-2" d="M124.85,74.83c0-1.06.91-1.54,2.36-1.54a5.34,5.34,0,0,1,.92.08v-.16c0-.62-.39-.87-1.23-.87a3.41,3.41,0,0,0-1.52.35,2.23,2.23,0,0,1-.45-1,5.46,5.46,0,0,1,2.29-.49c1.2,0,2.26.46,2.26,2v3.11a4.86,4.86,0,0,1-1.16.07l-.07-.48a2.52,2.52,0,0,1-1.28.64c-1.38,0-2.12-.64-2.12-1.66m3.31.39v-1c-.23,0-.54,0-.83,0a2.33,2.33,0,0,0-1.07.19.86.86,0,0,0-.06.34c0,.52.51.71,1.09.71a2.19,2.19,0,0,0,.88-.17"/><path class="cls-2" d="M130.38,71.54a4,4,0,0,1,1.31-.22,4.61,4.61,0,0,1,0,.51,2.75,2.75,0,0,1,1.31-.64,1.94,1.94,0,0,1,2.15,2.21v2.86a3,3,0,0,1-1.32.07l0-2.48c0-1.09-.37-1.43-1.19-1.43a2.46,2.46,0,0,0-.8.15v3.69a3,3,0,0,1-1.33.07c0-1.62,0-3.2-.09-4.79"/><path class="cls-2" d="M140.87,71.54a24.17,24.17,0,0,1-1.78,4.52A5.78,5.78,0,0,1,136,78.92a1.63,1.63,0,0,1-.8-1,4.56,4.56,0,0,0,2.19-1.6l-1.88-4.79a3.92,3.92,0,0,1,1.41-.22l1.37,3.83a17.85,17.85,0,0,0,1.23-3.84,4.33,4.33,0,0,1,1.35.23"/></g></g></svg>